<svg width="18" height="18" viewBox="0 0 18 18" fill="none" xmlns="http://www.w3.org/2000/svg">
<mask id="mask0_391_2659" style="mask-type:alpha" maskUnits="userSpaceOnUse" x="0" y="0" width="18" height="18">
<rect width="18" height="18" fill="#D9D9D9"/>
</mask>
<g mask="url(#mask0_391_2659)">
<path d="M5.71777 4.80195L7.81777 2.0832C7.96777 1.8832 8.1459 1.73633 8.35215 1.64258C8.5584 1.54883 8.77402 1.50195 8.99902 1.50195C9.22402 1.50195 9.43965 1.54883 9.6459 1.64258C9.85215 1.73633 10.0303 1.8832 10.1803 2.0832L12.2803 4.80195L15.4678 5.8707C15.7928 5.9707 16.049 6.15508 16.2365 6.42383C16.424 6.69258 16.5178 6.98945 16.5178 7.31445C16.5178 7.46445 16.4959 7.61445 16.4521 7.76445C16.4084 7.91445 16.3365 8.0582 16.2365 8.1957L14.174 11.1207L14.249 14.1957C14.2615 14.6332 14.1178 15.002 13.8178 15.302C13.5178 15.602 13.1678 15.752 12.7678 15.752C12.7428 15.752 12.6053 15.7332 12.3553 15.6957L8.99902 14.7582L5.64277 15.6957C5.58027 15.7207 5.51152 15.7363 5.43652 15.7426C5.36152 15.7488 5.29277 15.752 5.23027 15.752C4.83027 15.752 4.48027 15.602 4.18027 15.302C3.88027 15.002 3.73652 14.6332 3.74902 14.1957L3.82402 11.102L1.78027 8.1957C1.68027 8.0582 1.6084 7.91445 1.56465 7.76445C1.5209 7.61445 1.49902 7.46445 1.49902 7.31445C1.49902 7.00195 1.58965 6.71133 1.7709 6.44258C1.95215 6.17383 2.20527 5.9832 2.53027 5.8707L5.71777 4.80195Z" fill="#FF6200"/>
</g>
</svg>
