<svg width="15" height="16" viewBox="0 0 15 16" fill="none" xmlns="http://www.w3.org/2000/svg">
<g clip-path="url(#clip0_77_230)">
<path d="M2.11594 4.04179C1.64323 3.51347 1.40687 3.2493 1.39795 3.0248C1.39021 2.82977 1.47402 2.64233 1.62453 2.51805C1.79778 2.375 2.15225 2.375 2.86118 2.375H12.138C12.8469 2.375 13.2014 2.375 13.3747 2.51805C13.5252 2.64233 13.609 2.82977 13.6012 3.0248C13.5923 3.2493 13.356 3.51347 12.8833 4.04179L9.31686 8.02777C9.22263 8.13309 9.17551 8.18574 9.14192 8.24567C9.11212 8.29882 9.09026 8.35605 9.07702 8.41553C9.0621 8.48259 9.0621 8.55325 9.0621 8.69456V13.65C9.0621 13.7723 9.0621 13.8334 9.04238 13.8862C9.02497 13.9329 8.99664 13.9748 8.95976 14.0083C8.91802 14.0462 8.86128 14.0689 8.74779 14.1143L6.62279 14.9643C6.39308 15.0562 6.27822 15.1021 6.18602 15.083C6.10539 15.0662 6.03463 15.0183 5.98913 14.9497C5.9371 14.8712 5.9371 14.7475 5.9371 14.5V8.69456C5.9371 8.55325 5.9371 8.48259 5.92217 8.41553C5.90894 8.35605 5.88707 8.29882 5.85728 8.24567C5.82368 8.18574 5.77657 8.13309 5.68234 8.02777L2.11594 4.04179Z" fill="#6C737F"/>
</g>
<defs>
<clipPath id="clip0_77_230">
<rect width="15" height="15" fill="white" transform="translate(0 0.5)"/>
</clipPath>
</defs>
</svg>
