<svg width="30" height="31" viewBox="0 0 30 31" fill="none" xmlns="http://www.w3.org/2000/svg">
<path d="M15 13.625V9.25M15 18H15.0125M8.75 23V25.9194C8.75 26.5854 8.75 26.9185 8.88654 27.0895C9.00528 27.2383 9.18534 27.3248 9.37567 27.3246C9.59453 27.3244 9.85459 27.1163 10.3747 26.7002L13.3565 24.3148C13.9656 23.8275 14.2702 23.5838 14.6094 23.4106C14.9102 23.2568 15.2305 23.1445 15.5615 23.0766C15.9346 23 16.3246 23 17.1047 23H20.25C22.3502 23 23.4003 23 24.2025 22.5913C24.9081 22.2317 25.4817 21.6581 25.8413 20.9525C26.25 20.1503 26.25 19.1002 26.25 17V10.25C26.25 8.1498 26.25 7.0997 25.8413 6.29754C25.4817 5.59193 24.9081 5.01825 24.2025 4.65873C23.4003 4.25 22.3502 4.25 20.25 4.25H9.75C7.6498 4.25 6.5997 4.25 5.79754 4.65873C5.09193 5.01825 4.51825 5.59193 4.15873 6.29754C3.75 7.0997 3.75 8.1498 3.75 10.25V18C3.75 19.1625 3.75 19.7437 3.87778 20.2206C4.22453 21.5147 5.23533 22.5255 6.52943 22.8722C7.0063 23 7.58754 23 8.75 23Z" stroke="#FFF4ED" stroke-width="2.5" stroke-linecap="round" stroke-linejoin="round"/>
</svg>
