<svg width="46" height="46" viewBox="0 0 46 46" fill="none" xmlns="http://www.w3.org/2000/svg">
<mask id="mask0_17_288" style="mask-type:alpha" maskUnits="userSpaceOnUse" x="0" y="0" width="46" height="46">
<rect width="46" height="46" fill="#D9D9D9"/>
</mask>
<g mask="url(#mask0_17_288)">
<path d="M7.83975 40.8729V41.8979H8.86475H12.3627H13.3877V40.8729V27.2354H23.854L24.5868 30.5523L24.7644 31.3562H25.5877H39.0522H40.0772V30.3312V11.2125V10.1875H39.0522H28.2715L27.4915 6.81286L27.3079 6.0187H26.4928H8.86475H7.83975V7.0437V40.8729Z" fill="#FF6200" stroke="#FFF6E7" stroke-width="2.05"/>
</g>
<circle cx="19.5" cy="17" r="6.5" fill="#FFE5D1"/>
<mask id="mask1_17_288" style="mask-type:alpha" maskUnits="userSpaceOnUse" x="14" y="11" width="11" height="12">
<rect x="14" y="11.5" width="11" height="11" fill="#D9D9D9"/>
</mask>
<g mask="url(#mask1_17_288)">
<path d="M18.354 21.5834C17.7811 21.5834 17.2941 21.3829 16.8931 20.9819C16.492 20.5808 16.2915 20.0938 16.2915 19.5209C16.2915 19.2536 16.3564 19.0072 16.4863 18.7819C16.6162 18.5565 16.8568 18.2681 17.2082 17.9167C17.254 17.8709 17.2979 17.8232 17.3399 17.7735C17.382 17.7239 17.4373 17.657 17.5061 17.573C17.1165 16.9772 16.8167 16.3527 16.6066 15.6996C16.3965 15.0464 16.2915 14.4105 16.2915 13.7917C16.2915 13.3487 16.3717 13.0088 16.5321 12.772C16.6925 12.5352 16.9179 12.4167 17.2082 12.4167C17.6436 12.4167 18.0332 12.6268 18.3769 13.047C18.7207 13.4671 18.9804 13.8529 19.1561 14.2042C19.2248 14.357 19.2879 14.5117 19.3451 14.6683C19.4024 14.8249 19.454 14.9872 19.4998 15.1553C19.5457 14.9872 19.5972 14.8249 19.6545 14.6683C19.7118 14.5117 19.7787 14.357 19.855 14.2042C20.0231 13.8529 20.279 13.4671 20.6228 13.047C20.9665 12.6268 21.3561 12.4167 21.7915 12.4167C22.0818 12.4167 22.3071 12.5352 22.4675 12.772C22.628 13.0088 22.7082 13.3487 22.7082 13.7917C22.7082 14.4105 22.6031 15.0464 22.3931 15.6996C22.183 16.3527 21.8832 16.9772 21.4936 17.573C21.5623 17.657 21.6177 17.7239 21.6597 17.7735C21.7017 17.8232 21.7457 17.8709 21.7915 17.9167C22.1429 18.2681 22.3835 18.5565 22.5134 18.7819C22.6432 19.0072 22.7082 19.2536 22.7082 19.5209C22.7082 20.0938 22.5076 20.5808 22.1066 20.9819C21.7056 21.3829 21.2186 21.5834 20.6457 21.5834C20.3019 21.5834 20.025 21.5452 19.8149 21.4688L19.4998 21.3542L19.1847 21.4688C18.9747 21.5452 18.6978 21.5834 18.354 21.5834ZM18.354 20.6667C18.5297 20.6667 18.7054 20.6457 18.8811 20.6037C19.0568 20.5617 19.221 20.4987 19.3738 20.4147C19.2898 20.3765 19.2134 20.3115 19.1446 20.2199C19.0759 20.1282 19.0415 20.048 19.0415 19.9792C19.0415 19.9181 19.0854 19.8647 19.1733 19.8188C19.2611 19.773 19.37 19.7501 19.4998 19.7501C19.6297 19.7501 19.7386 19.773 19.8264 19.8188C19.9142 19.8647 19.9582 19.9181 19.9582 19.9792C19.9582 20.048 19.9238 20.1282 19.855 20.2199C19.7863 20.3115 19.7099 20.3765 19.6259 20.4147C19.7787 20.4987 19.9429 20.5617 20.1186 20.6037C20.2943 20.6457 20.47 20.6667 20.6457 20.6667C20.9665 20.6667 21.2377 20.556 21.4592 20.3345C21.6807 20.1129 21.7915 19.8417 21.7915 19.5209C21.7915 19.3834 21.7533 19.2497 21.6769 19.1199C21.6005 18.99 21.4859 18.8602 21.3332 18.7303C21.2262 18.6386 21.1384 18.5584 21.0696 18.4897C21.0009 18.4209 20.8901 18.2911 20.7373 18.1001C20.5158 17.8327 20.3325 17.6589 20.1873 17.5787C20.0422 17.4985 19.813 17.4584 19.4998 17.4584C19.1866 17.4584 18.9556 17.4985 18.8066 17.5787C18.6576 17.6589 18.4762 17.8327 18.2623 18.1001C18.1096 18.2911 17.9988 18.4209 17.93 18.4897C17.8613 18.5584 17.7734 18.6386 17.6665 18.7303C17.5137 18.8602 17.3991 18.99 17.3228 19.1199C17.2464 19.2497 17.2082 19.3834 17.2082 19.5209C17.2082 19.8417 17.3189 20.1129 17.5405 20.3345C17.762 20.556 18.0332 20.6667 18.354 20.6667ZM18.8123 19.1772C18.7512 19.1772 18.6978 19.1428 18.6519 19.074C18.6061 19.0053 18.5832 18.9251 18.5832 18.8334C18.5832 18.7417 18.6061 18.6615 18.6519 18.5928C18.6978 18.524 18.7512 18.4897 18.8123 18.4897C18.8734 18.4897 18.9269 18.524 18.9728 18.5928C19.0186 18.6615 19.0415 18.7417 19.0415 18.8334C19.0415 18.9251 19.0186 19.0053 18.9728 19.074C18.9269 19.1428 18.8734 19.1772 18.8123 19.1772ZM20.1873 19.1772C20.1262 19.1772 20.0728 19.1428 20.0269 19.074C19.9811 19.0053 19.9582 18.9251 19.9582 18.8334C19.9582 18.7417 19.9811 18.6615 20.0269 18.5928C20.0728 18.524 20.1262 18.4897 20.1873 18.4897C20.2484 18.4897 20.3019 18.524 20.3478 18.5928C20.3936 18.6615 20.4165 18.7417 20.4165 18.8334C20.4165 18.9251 20.3936 19.0053 20.3478 19.074C20.3019 19.1428 20.2484 19.1772 20.1873 19.1772ZM18.1592 16.897C18.2432 16.8358 18.3387 16.7824 18.4457 16.7365C18.5526 16.6907 18.671 16.6487 18.8009 16.6105C18.7856 16.2438 18.7302 15.8791 18.6347 15.5162C18.5392 15.1534 18.4189 14.823 18.2738 14.5251C18.1287 14.2195 17.9682 13.9617 17.7925 13.7516C17.6169 13.5416 17.4412 13.406 17.2655 13.3449C17.2502 13.3907 17.2368 13.4499 17.2254 13.5225C17.2139 13.595 17.2082 13.6848 17.2082 13.7917C17.2082 14.3112 17.2903 14.8383 17.4545 15.373C17.6188 15.9077 17.8537 16.4157 18.1592 16.897ZM20.8405 16.897C21.146 16.4157 21.3809 15.9077 21.5452 15.373C21.7094 14.8383 21.7915 14.3112 21.7915 13.7917C21.7915 13.6848 21.7858 13.595 21.7743 13.5225C21.7629 13.4499 21.7495 13.3907 21.7342 13.3449C21.5585 13.406 21.3828 13.5416 21.2071 13.7516C21.0314 13.9617 20.871 14.2195 20.7259 14.5251C20.5884 14.823 20.4719 15.1534 20.3764 15.5162C20.2809 15.8791 20.2217 16.2438 20.1988 16.6105C20.3134 16.6411 20.4241 16.6812 20.5311 16.7308C20.638 16.7805 20.7412 16.8358 20.8405 16.897Z" fill="#FF561E"/>
</g>
</svg>
