<svg width="30" height="29" viewBox="0 0 30 29" fill="none" xmlns="http://www.w3.org/2000/svg">
<path d="M2.91699 10.1228C2.91699 9.6995 2.91699 9.48785 2.93465 9.30958C3.10501 7.59019 4.46519 6.23001 6.18458 6.05966C6.36285 6.04199 6.58592 6.04199 7.03207 6.04199C7.20398 6.04199 7.28994 6.04199 7.36292 6.03757C8.29481 5.98113 9.11085 5.39297 9.45908 4.52674C9.48636 4.4589 9.51185 4.38243 9.56283 4.22949C9.61381 4.07655 9.6393 4.00008 9.66657 3.93224C10.0148 3.06602 10.8308 2.47785 11.7627 2.42141C11.8357 2.41699 11.9163 2.41699 12.0775 2.41699H17.9231C18.0843 2.41699 18.1649 2.41699 18.2379 2.42141C19.1698 2.47785 19.9859 3.06602 20.3341 3.93224C20.3614 4.00008 20.3868 4.07655 20.4378 4.22949C20.4888 4.38243 20.5143 4.4589 20.5416 4.52674C20.8898 5.39297 21.7058 5.98113 22.6377 6.03757C22.7107 6.04199 22.7967 6.04199 22.9686 6.04199C23.4147 6.04199 23.6378 6.04199 23.8161 6.05966C25.5355 6.23001 26.8956 7.59019 27.066 9.30958C27.0837 9.48785 27.0837 9.6995 27.0837 10.1228V19.5753C27.0837 21.6055 27.0837 22.6206 26.6886 23.396C26.341 24.0781 25.7865 24.6327 25.1044 24.9802C24.3289 25.3753 23.3138 25.3753 21.2837 25.3753H8.71699C6.6868 25.3753 5.67171 25.3753 4.89628 24.9802C4.21419 24.6327 3.65963 24.0781 3.31209 23.396C2.91699 22.6206 2.91699 21.6055 2.91699 19.5753V10.1228Z" stroke="#FF692E" stroke-width="2" stroke-linecap="round" stroke-linejoin="round"/>
<path d="M15.0003 19.9378C17.6697 19.9378 19.8337 17.7739 19.8337 15.1045C19.8337 12.4351 17.6697 10.2712 15.0003 10.2712C12.3309 10.2712 10.167 12.4351 10.167 15.1045C10.167 17.7739 12.3309 19.9378 15.0003 19.9378Z" stroke="#FF692E" stroke-width="2" stroke-linecap="round" stroke-linejoin="round"/>
</svg>
