<svg width="30" height="29" viewBox="0 0 30 29" fill="none" xmlns="http://www.w3.org/2000/svg">
<path d="M2.91663 10.1223C2.91663 9.69901 2.91663 9.48736 2.93429 9.30909C3.10464 7.5897 4.46483 6.22952 6.18421 6.05917C6.36248 6.0415 6.58556 6.0415 7.03171 6.0415C7.20362 6.0415 7.28957 6.0415 7.36255 6.03708C8.29445 5.98065 9.11048 5.39248 9.45872 4.52625C9.48599 4.45842 9.51148 4.38195 9.56246 4.229C9.61344 4.07606 9.63893 3.99959 9.6662 3.93176C10.0144 3.06553 10.8305 2.47736 11.7624 2.42092C11.8353 2.4165 11.916 2.4165 12.0772 2.4165H17.9228C18.084 2.4165 18.1646 2.4165 18.2376 2.42092C19.1694 2.47736 19.9855 3.06553 20.3337 3.93176C20.361 3.99959 20.3865 4.07606 20.4375 4.229C20.4884 4.38195 20.5139 4.45842 20.5412 4.52625C20.8894 5.39248 21.7055 5.98065 22.6374 6.03708C22.7103 6.0415 22.7963 6.0415 22.9682 6.0415C23.4144 6.0415 23.6374 6.0415 23.8157 6.05917C25.5351 6.22952 26.8953 7.5897 27.0656 9.30909C27.0833 9.48736 27.0833 9.69901 27.0833 10.1223V19.5748C27.0833 21.605 27.0833 22.6201 26.6882 23.3956C26.3407 24.0776 25.7861 24.6322 25.104 24.9797C24.3286 25.3748 23.3135 25.3748 21.2833 25.3748H8.71663C6.68644 25.3748 5.67134 25.3748 4.89591 24.9797C4.21382 24.6322 3.65927 24.0776 3.31173 23.3956C2.91663 22.6201 2.91663 21.605 2.91663 19.5748V10.1223Z" stroke="#6C737F" stroke-width="2" stroke-linecap="round" stroke-linejoin="round"/>
<path d="M15 19.9373C17.6693 19.9373 19.8333 17.7734 19.8333 15.104C19.8333 12.4346 17.6693 10.2707 15 10.2707C12.3306 10.2707 10.1666 12.4346 10.1666 15.104C10.1666 17.7734 12.3306 19.9373 15 19.9373Z" stroke="#6C737F" stroke-width="2" stroke-linecap="round" stroke-linejoin="round"/>
</svg>
