<svg width="34" height="34" viewBox="0 0 34 34" fill="none" xmlns="http://www.w3.org/2000/svg">
<path d="M4.25 11.3335L21.25 11.3335M21.25 11.3335C21.25 13.6807 23.1528 15.5835 25.5 15.5835C27.8472 15.5835 29.75 13.6807 29.75 11.3335C29.75 8.98629 27.8472 7.0835 25.5 7.0835C23.1528 7.0835 21.25 8.98629 21.25 11.3335ZM12.75 22.6668L29.75 22.6668M12.75 22.6668C12.75 25.014 10.8472 26.9168 8.5 26.9168C6.15279 26.9168 4.25 25.014 4.25 22.6668C4.25 20.3196 6.15279 18.4168 8.5 18.4168C10.8472 18.4168 12.75 20.3196 12.75 22.6668Z" stroke="white" stroke-width="2" stroke-linecap="round" stroke-linejoin="round"/>
</svg>
