<svg width="34" height="34" viewBox="0 0 34 34" fill="none" xmlns="http://www.w3.org/2000/svg">
<path d="M5.66665 19.8336L7.8974 28.7566C7.96013 29.0075 7.9915 29.133 8.02861 29.2425C8.39113 30.3128 9.35496 31.0654 10.4812 31.1575C10.5965 31.1669 10.7258 31.1669 10.9845 31.1669C11.3084 31.1669 11.4704 31.1669 11.6068 31.1537C12.9554 31.0229 14.0226 29.9556 14.1534 28.6071C14.1667 28.4707 14.1667 28.3087 14.1667 27.9848V7.79191M26.2083 19.1252C28.9467 19.1252 31.1666 16.9053 31.1666 14.1669C31.1666 11.4285 28.9467 9.20857 26.2083 9.20857M14.5208 7.79191H9.20831C5.6875 7.79191 2.83331 10.6461 2.83331 14.1669C2.83332 17.6877 5.6875 20.5419 9.20831 20.5419H14.5208C17.0233 20.5419 20.0844 21.8833 22.4461 23.1707C23.8238 23.9218 24.5127 24.2973 24.9639 24.2421C25.3823 24.1908 25.6986 24.003 25.9438 23.6601C26.2083 23.2905 26.2083 22.5507 26.2083 21.0713V7.26248C26.2083 5.78307 26.2083 5.04336 25.9438 4.67367C25.6986 4.33085 25.3823 4.143 24.9639 4.09176C24.5127 4.0365 23.8238 4.41202 22.4461 5.16308C20.0844 6.45048 17.0232 7.79191 14.5208 7.79191Z" stroke="white" stroke-width="2" stroke-linecap="round" stroke-linejoin="round"/>
</svg>
