<svg width="34" height="34" viewBox="0 0 34 34" fill="none" xmlns="http://www.w3.org/2000/svg">
<path d="M19.8334 15.5835H11.3334M14.1667 21.2502H11.3334M22.6667 9.91683H11.3334M28.3334 9.6335V24.3668C28.3334 26.7471 28.3334 27.9372 27.8701 28.8463C27.4627 29.646 26.8125 30.2961 26.0128 30.7036C25.1037 31.1668 23.9136 31.1668 21.5334 31.1668H12.4667C10.0865 31.1668 8.89635 31.1668 7.98723 30.7036C7.18754 30.2961 6.53737 29.646 6.12991 28.8463C5.66669 27.9372 5.66669 26.7471 5.66669 24.3668V9.6335C5.66669 7.25327 5.66669 6.06316 6.12991 5.15404C6.53737 4.35435 7.18754 3.70418 7.98723 3.29672C8.89635 2.8335 10.0865 2.8335 12.4667 2.8335H21.5334C23.9136 2.8335 25.1037 2.8335 26.0128 3.29672C26.8125 3.70418 27.4627 4.35435 27.8701 5.15404C28.3334 6.06316 28.3334 7.25327 28.3334 9.6335Z" stroke="white" stroke-width="2" stroke-linecap="round" stroke-linejoin="round"/>
</svg>
