<svg width="34" height="34" viewBox="0 0 34 34" fill="none" xmlns="http://www.w3.org/2000/svg">
<path d="M18.4166 7.08333C18.4166 8.64814 14.9282 9.91667 10.625 9.91667C6.32176 9.91667 2.83331 8.64814 2.83331 7.08333M18.4166 7.08333C18.4166 5.51853 14.9282 4.25 10.625 4.25C6.32176 4.25 2.83331 5.51853 2.83331 7.08333M18.4166 7.08333V13.3976C16.6862 13.9173 15.5833 14.7035 15.5833 15.5833M2.83331 7.08333V24.0833C2.83331 25.6481 6.32176 26.9167 10.625 26.9167C12.5086 26.9167 14.2361 26.6736 15.5833 26.269V15.5833M2.83331 12.75C2.83331 14.3148 6.32176 15.5833 10.625 15.5833C12.5086 15.5833 14.2361 15.3403 15.5833 14.9357M2.83331 18.4167C2.83331 19.9815 6.32176 21.25 10.625 21.25C12.5086 21.25 14.2361 21.0069 15.5833 20.6024M31.1666 15.5833C31.1666 17.1481 27.6782 18.4167 23.375 18.4167C19.0718 18.4167 15.5833 17.1481 15.5833 15.5833M31.1666 15.5833C31.1666 14.0185 27.6782 12.75 23.375 12.75C19.0718 12.75 15.5833 14.0185 15.5833 15.5833M31.1666 15.5833V26.9167C31.1666 28.4815 27.6782 29.75 23.375 29.75C19.0718 29.75 15.5833 28.4815 15.5833 26.9167V15.5833M31.1666 21.25C31.1666 22.8148 27.6782 24.0833 23.375 24.0833C19.0718 24.0833 15.5833 22.8148 15.5833 21.25" stroke="white" stroke-width="1.8" stroke-linecap="round" stroke-linejoin="round"/>
</svg>
