<svg width="34" height="34" viewBox="0 0 34 34" fill="none" xmlns="http://www.w3.org/2000/svg">
<mask id="mask0_75_881" style="mask-type:alpha" maskUnits="userSpaceOnUse" x="0" y="0" width="34" height="34">
<rect width="34" height="34" fill="#D9D9D9"/>
</mask>
<g mask="url(#mask0_75_881)">
<path d="M29.4175 15.5449V26.8347C29.4175 27.5503 29.1695 28.1561 28.6737 28.6519C28.1779 29.1478 27.5723 29.3957 26.8568 29.3957H7.18677C6.47135 29.3957 5.86573 29.1478 5.36989 28.6519C4.87406 28.1561 4.62614 27.5503 4.62614 26.8347V15.5177C4.0557 15.0492 3.62751 14.4412 3.34158 13.6937C3.05542 12.9464 3.04951 12.1396 3.32387 11.2733L4.75683 6.59265C4.94572 5.99694 5.26624 5.51657 5.71839 5.15155C6.17078 4.78652 6.71112 4.604 7.33942 4.604H26.6769C27.3054 4.604 27.8421 4.77837 28.287 5.12711C28.732 5.47584 29.0562 5.95539 29.2595 6.56573L30.7197 11.2733C30.9941 12.1396 30.9882 12.9437 30.702 13.6855C30.4161 14.4276 29.9879 15.0474 29.4175 15.5449ZM20.1386 14.5207C20.9124 14.5207 21.494 14.2841 21.8836 13.8109C22.2732 13.3378 22.4326 12.8296 22.3618 12.2866L21.5008 6.729H18.0841V12.3248C18.0841 12.9205 18.2858 13.4355 18.689 13.8697C19.0923 14.3037 19.5755 14.5207 20.1386 14.5207ZM13.7636 14.5207C14.4155 14.5207 14.9444 14.3037 15.3503 13.8697C15.7564 13.4355 15.9595 12.9205 15.9595 12.3248V6.729H12.5428L11.6822 12.3411C11.6057 12.8443 11.7637 13.3334 12.1561 13.8084C12.5485 14.2833 13.0844 14.5207 13.7636 14.5207ZM7.45948 14.5207C7.98435 14.5207 8.43568 14.3377 8.81346 13.9717C9.19124 13.6057 9.42463 13.1458 9.51365 12.5919L10.347 6.729H7.33942C7.185 6.729 7.06246 6.763 6.97179 6.831C6.88089 6.89924 6.81277 7.00148 6.76744 7.13771L5.40496 11.7472C5.21796 12.3556 5.30614 12.97 5.66952 13.5903C6.03266 14.2105 6.62931 14.5207 7.45948 14.5207ZM26.5845 14.5207C27.3509 14.5207 27.9375 14.2196 28.3443 13.6175C28.7512 13.0155 28.8493 12.392 28.6386 11.7472L27.2053 7.11044C27.16 6.97421 27.092 6.87657 27.0013 6.81755C26.9104 6.75852 26.7878 6.729 26.6334 6.729H23.6966L24.53 12.5919C24.619 13.1458 24.8524 13.6057 25.2301 13.9717C25.6079 14.3377 26.0594 14.5207 26.5845 14.5207ZM7.18677 27.2707H26.8568C26.9839 27.2707 27.0882 27.2298 27.1699 27.1481C27.2519 27.0664 27.2928 26.962 27.2928 26.8347V16.5203C27.1384 16.5767 27.0094 16.6117 26.9057 16.6251C26.8023 16.6388 26.6952 16.6457 26.5845 16.6457C25.947 16.6457 25.3862 16.5303 24.9022 16.2997C24.4182 16.069 23.949 15.6993 23.4947 15.1908C23.0971 15.6339 22.6268 15.9873 22.0837 16.2508C21.5407 16.514 20.9214 16.6457 20.2258 16.6457C19.6246 16.6457 19.058 16.5208 18.5258 16.271C17.9936 16.0214 17.4923 15.6613 17.022 15.1908C16.5842 15.6613 16.0884 16.0214 15.5345 16.271C14.9803 16.5208 14.4191 16.6457 13.8508 16.6457C13.2114 16.6457 12.612 16.5299 12.0527 16.2982C11.4933 16.0666 11.0011 15.6974 10.5761 15.1908C9.9802 15.7865 9.43112 16.1779 8.92892 16.3652C8.42694 16.5522 7.93713 16.6457 7.45948 16.6457C7.34851 16.6457 7.23399 16.6388 7.11594 16.6251C6.99788 16.6117 6.87617 16.5767 6.75079 16.5203V26.8347C6.75079 26.962 6.79176 27.0664 6.87369 27.1481C6.95538 27.2298 7.05974 27.2707 7.18677 27.2707Z" fill="white"/>
</g>
</svg>
