<svg width="34" height="34" viewBox="0 0 34 34" fill="none" xmlns="http://www.w3.org/2000/svg">
<path d="M12.75 12.7502H12.7641M21.25 21.2502H21.2641M22.6666 11.3335L11.3333 22.6668M31.1666 17.0002C31.1666 24.8242 24.824 31.1668 17 31.1668C9.17595 31.1668 2.83331 24.8242 2.83331 17.0002C2.83331 9.17613 9.17595 2.8335 17 2.8335C24.824 2.8335 31.1666 9.17613 31.1666 17.0002ZM13.4583 12.7502C13.4583 13.1414 13.1412 13.4585 12.75 13.4585C12.3588 13.4585 12.0416 13.1414 12.0416 12.7502C12.0416 12.359 12.3588 12.0418 12.75 12.0418C13.1412 12.0418 13.4583 12.359 13.4583 12.7502ZM21.9583 21.2502C21.9583 21.6414 21.6412 21.9585 21.25 21.9585C20.8588 21.9585 20.5416 21.6414 20.5416 21.2502C20.5416 20.859 20.8588 20.5418 21.25 20.5418C21.6412 20.5418 21.9583 20.859 21.9583 21.2502Z" stroke="white" stroke-width="2" stroke-linecap="round" stroke-linejoin="round"/>
</svg>
