<svg width="34" height="36" viewBox="0 0 34 36" fill="none" xmlns="http://www.w3.org/2000/svg">
<path d="M28.4859 11.6523V24.4932C28.4859 25.1418 28.2641 25.688 27.8203 26.1317C27.3769 26.5752 26.8308 26.7969 26.1822 26.7969H3.96635C3.31771 26.7969 2.77152 26.5752 2.32779 26.1317C1.88433 25.688 1.6626 25.1418 1.6626 24.4932V11.5916C0.964042 11.0751 0.477888 10.4114 0.204139 9.60039C-0.069873 8.78913 -0.068034 7.94673 0.209656 7.0732L1.74969 2.02277C1.95986 1.36257 2.29785 0.86039 2.76364 0.516234C3.22943 0.172077 3.79808 0 4.46958 0H25.5737C26.2534 0 26.8344 0.165905 27.3167 0.497714C27.7991 0.829523 28.1395 1.31765 28.3382 1.96209L29.9653 7.0732C30.2427 7.94673 30.2401 8.79819 29.9574 9.62758C29.675 10.4567 29.1845 11.1316 28.4859 11.6523ZM18.5671 11.1554C19.6012 11.1554 20.3901 10.8676 20.9339 10.292C21.4775 9.71638 21.7078 9.11161 21.6247 8.47768L20.5375 1.33393H15.7542V8.15848C15.7542 8.96607 16.0284 9.66738 16.5767 10.2624C17.125 10.8577 17.7884 11.1554 18.5671 11.1554ZM11.3911 11.1554C12.2714 11.1554 12.9964 10.8622 13.566 10.2758C14.1355 9.68945 14.4203 8.98367 14.4203 8.15848V1.33393H9.61695L8.52971 8.59905C8.46508 9.10951 8.69259 9.66318 9.21224 10.2601C9.73189 10.857 10.4582 11.1554 11.3911 11.1554ZM4.33205 11.1554C5.06502 11.1554 5.69606 10.9052 6.22517 10.4047C6.75428 9.90396 7.07177 9.28513 7.17764 8.54822L8.21011 1.33393H4.33638C3.99275 1.33393 3.71651 1.40973 3.50765 1.56131C3.29879 1.71264 3.15062 1.93989 3.06313 2.24306L1.53137 7.37428C1.24291 8.27407 1.35995 9.12921 1.88249 9.93969C2.40477 10.7502 3.22129 11.1554 4.33205 11.1554ZM25.8161 11.1554C26.7855 11.1554 27.5734 10.7747 28.1797 10.0134C28.7858 9.25229 28.9336 8.37259 28.6231 7.37428L27.0448 2.18237C26.9573 1.87946 26.8091 1.66233 26.6003 1.53097C26.3914 1.39961 26.1153 1.33393 25.772 1.33393H21.9443L22.9768 8.54822C23.0961 9.28513 23.417 9.90396 23.9395 10.4047C24.4618 10.9052 25.0873 11.1554 25.8161 11.1554ZM3.96635 25.463H26.1822C26.4515 25.463 26.6804 25.3721 26.869 25.1903C27.0577 25.0085 27.152 24.7761 27.152 24.4932V12.2951C26.9776 12.3639 26.7726 12.4134 26.5372 12.4436C26.3018 12.4738 26.0615 12.4889 25.8161 12.4889C25.1283 12.4889 24.5078 12.3442 23.9545 12.0547C23.4012 11.7649 22.8712 11.3061 22.3644 10.6782C21.9604 11.2131 21.4542 11.6486 20.846 11.9849C20.2376 12.3209 19.4881 12.4889 18.5975 12.4889C17.9436 12.4889 17.3405 12.3455 16.7883 12.0586C16.2363 11.7717 15.6694 11.3372 15.0875 10.755C14.5681 11.3291 13.9866 11.7616 13.3429 12.0527C12.6993 12.3435 12.0736 12.4889 11.4659 12.4889C10.7837 12.4889 10.1277 12.3606 9.49794 12.1039C8.86848 11.8473 8.3261 11.372 7.87082 10.6782C7.07111 11.4524 6.37006 11.9477 5.76765 12.1642C5.16499 12.3807 4.68645 12.4889 4.33205 12.4889C4.09087 12.4889 3.85706 12.4738 3.6306 12.4436C3.40388 12.4134 3.19252 12.3639 2.99654 12.2951V24.4932C2.99654 24.7761 3.09085 25.0085 3.27948 25.1903C3.46811 25.3721 3.69707 25.463 3.96635 25.463Z" fill="white"/>
<circle cx="22.4405" cy="23.9066" r="11.0595" stroke="#393939"/>
<path d="M31.3981 23.907C31.3981 28.8542 27.3876 32.8647 22.4404 32.8647C17.4932 32.8647 13.4827 28.8542 13.4827 23.907C13.4827 18.9597 17.4932 14.9492 22.4404 14.9492C27.3876 14.9492 31.3981 18.9597 31.3981 23.907Z" fill="#393939" stroke="#393939"/>
<path d="M32.2992 23.907C32.2992 29.3518 27.8854 33.7656 22.4406 33.7656C16.9959 33.7656 12.582 29.3518 12.582 23.907C12.582 18.4623 16.9959 14.0484 22.4406 14.0484C27.8854 14.0484 32.2992 18.4623 32.2992 23.907Z" stroke="white" stroke-width="1.3"/>
<rect x="19.2881" y="20.7544" width="2.10172" height="7.35602" fill="white"/>
<rect x="23.4913" y="20.7544" width="2.10172" height="7.35602" fill="white"/>
</svg>
