<svg width="94" height="94" viewBox="0 0 94 94" fill="none" xmlns="http://www.w3.org/2000/svg">
<rect width="94" height="94" rx="47" fill="#FF5500"/>
<path d="M50.2617 62.9122C51.335 55.7714 48.0494 46.2721 40.2076 44.6658C39.952 44.6147 38.9334 44.381 38.9407 44.8447C45.3369 47.3199 47.7245 53.6284 47.3667 60.1413C47.2645 61.9995 46.611 64.3616 46.6219 66.1687C46.6256 66.9719 46.8483 67.4866 47.7172 67.5012C52.1565 66.709 56.6907 65.9643 61.2067 65.7927C64.1711 65.6831 68.1431 65.4203 70.3774 67.7203C71.9874 69.3741 71.0528 71.4294 69.0521 71.9515C66.7814 72.5466 62.1559 71.0242 59.5273 70.8636C53.8869 70.5167 50.7838 72.4042 45.7348 73.2037C40.9925 73.9558 41.4306 69.929 38.8166 67.0047C31.9861 59.36 19.7232 65.099 14.5026 55.9101C12.4436 52.2849 17.2188 51.029 19.6611 53.0369C18.4856 48.2289 18.5476 44.1364 21.3952 39.9526C26.9736 31.7531 38.1704 32.3299 46.4649 35.5097C49.1519 36.5392 54.2118 39.8322 56.7674 39.6752C59.3229 39.5182 60.6554 37.0174 59.4543 34.8014C58.308 32.6803 54.1498 29.7269 52.4266 27.3795C51.1963 25.7001 48.9036 20.9687 49.2943 18.9608C49.7433 16.6535 54.5258 18.5592 55.778 19.45C58.3226 21.2644 59.3996 24.2362 61.2322 26.5215C65.5292 31.8808 74.4078 32.7388 77.4744 39.186C78.0805 40.4601 79.2304 43.6472 79.172 44.9724C78.953 50.1054 71.4361 48.5465 68.0226 49.2511C63.6417 50.1565 63.3533 53.11 60.8453 56.0415C58.162 59.1775 54.011 61.3278 50.2544 62.9122H50.2617Z" fill="white"/>
<path d="M68.5665 30.1549C65.7555 29.3554 60.732 24.9891 60.3743 22.094C60.1041 19.9182 60.5057 17.0633 63.189 17.0012C68.8331 16.8735 67.2048 26.7524 68.5665 30.1549Z" fill="white"/>
<path d="M36.9442 69.2033C37.7401 68.9879 39.664 72.1823 39.6677 72.6715C39.6786 73.8178 35.4985 75.457 34.4617 75.6542C31.7273 76.1762 24.8712 76.7567 26.3351 72.102C27.3939 68.7323 31.7529 70.9885 33.7352 70.8498C35.1115 70.7512 36.2725 69.3785 36.9442 69.1996V69.2033Z" fill="white"/>
</svg>
