<svg width="164" height="28" viewBox="0 0 164 28" fill="none" xmlns="http://www.w3.org/2000/svg">
<path d="M17.209 21.7893C17.7183 18.4004 16.159 13.8923 12.4375 13.13C12.3162 13.1057 11.8328 12.9948 11.8363 13.2148C14.8717 14.3895 16.0048 17.3834 15.835 20.4743C15.7865 21.3561 15.4764 22.4771 15.4816 23.3347C15.4833 23.7159 15.589 23.9602 16.0014 23.9671C18.1082 23.5912 20.26 23.2377 22.4032 23.1563C23.81 23.1043 25.695 22.9796 26.7554 24.0711C27.5194 24.8559 27.0759 25.8314 26.1264 26.0791C25.0488 26.3615 22.8536 25.639 21.6062 25.5628C18.9294 25.3982 17.4567 26.2939 15.0606 26.6734C12.81 27.0303 13.0179 25.1193 11.7774 23.7315C8.53576 20.1035 2.71609 22.8271 0.238529 18.4662C-0.738635 16.7458 1.52755 16.1498 2.68664 17.1027C2.12875 14.8209 2.15821 12.8787 3.5096 10.8932C6.15695 7.00189 11.4707 7.27563 15.4071 8.78469C16.6823 9.27328 19.0836 10.836 20.2964 10.7615C21.5092 10.687 22.1416 9.50024 21.5715 8.44858C21.0275 7.44196 19.0541 6.04032 18.2364 4.92628C17.6525 4.12931 16.5644 1.88391 16.7498 0.930999C16.9629 -0.163979 19.2326 0.740417 19.8269 1.16316C21.0344 2.02424 21.5456 3.43455 22.4153 4.51913C24.4545 7.06253 28.6681 7.46968 30.1235 10.5294C30.4111 11.134 30.9568 12.6466 30.9291 13.2755C30.8251 15.7115 27.2578 14.9717 25.6379 15.306C23.5588 15.7357 23.4219 17.1374 22.2316 18.5286C20.9582 20.0169 18.9883 21.0374 17.2055 21.7893H17.209Z" fill="#FF6200"/>
<path d="M25.896 6.243C24.5619 5.86357 22.1779 3.79142 22.0081 2.4175C21.8799 1.3849 22.0705 0.0300363 23.3439 0.000582785C26.0225 -0.0600568 25.2497 4.62825 25.896 6.243Z" fill="#FF6200"/>
<path d="M10.8888 24.7745C11.2665 24.6722 12.1796 26.1882 12.1813 26.4204C12.1865 26.9644 10.2027 27.7423 9.71065 27.8359C8.41297 28.0837 5.15922 28.3591 5.85398 26.1501C6.35642 24.551 8.4251 25.6217 9.36588 25.5559C10.0191 25.5091 10.57 24.8576 10.8888 24.7727V24.7745Z" fill="#FF6200"/>
<g clip-path="url(#clip0_400_3936)">
<path d="M50.8805 6V8.33649H53.1904V18.3308H50.8805V20.6673H41V6H50.8805ZM43.9547 17.6748H50.2357V8.98872H43.9547V17.6748Z" fill="white"/>
<path d="M64.0872 15.9942H57.8061V17.6747H62.4221V20.6634H57.1575V18.3269H54.8477V15.3382H57.1575V13.0017H64.0834V11.3212H57.1575V8.33252H64.7282V10.669H67.038V20.6634H64.0834V15.9942H64.0872Z" fill="white"/>
<path d="M80.8935 11.3251H71.6578V13.0056H78.5836V15.3421H80.8935V18.3308H78.5836V20.6673H68.7031V17.6786H77.9388V15.9981H71.013V13.6616H68.7031V10.6729H71.013V8.33643H80.8935V11.3251Z" fill="white"/>
<path d="M87.8197 13.6579H85.5098V20.6635H82.5552V6H85.5098V10.6691H87.1711V8.33266H92.4357V10.6691H94.7456V20.6635H91.7909V11.3252H87.8197V13.6617V13.6579Z" fill="white"/>
<path d="M108.593 11.3252H106.283V13.0056H108.593V18.3308H106.283V20.6673H96.4028V6H106.283V8.33649H108.593V11.3252ZM99.3613 10.6691H105.642V8.98872H99.3613V10.6691ZM99.3613 17.6748H105.642V13.6579H99.3613V17.6748Z" fill="white"/>
<path d="M119.49 8.33643H122.445V20.6673H119.49V18.3308H117.829V20.6673H112.564V18.3308H110.254V8.33643H113.209V17.6786H117.18V15.3421H119.49V8.33643Z" fill="white"/>
<path d="M129.371 13.6578H127.061V20.6634H124.106V8.33643H127.061V10.6729H128.722V8.33643H133.987V10.6729H136.297V20.6673H133.342V11.3251H129.371V13.6616V13.6578Z" fill="white"/>
<path d="M143.223 13.6578H140.913V20.6634H137.958V8.33643H140.913V10.6729H142.574V8.33643H147.839V10.6729H150.148V20.6673H147.194V11.3251H143.223V13.6616V13.6578Z" fill="white"/>
<path d="M161.046 8.33643H164V15.9943H161.69V18.3308H159.38V20.6673H157.071V23.0038H151.806V20.0151H156.422V18.3346H154.112V15.9981H151.802V8.33643H154.757V15.3421H157.067V17.6786H158.728V15.3421H161.038V8.33643H161.046Z" fill="white"/>
</g>
<defs>
<clipPath id="clip0_400_3936">
<rect width="123" height="17" fill="white" transform="translate(41 6)"/>
</clipPath>
</defs>
</svg>
