<svg width="229" height="39" viewBox="0 0 229 39" fill="none" xmlns="http://www.w3.org/2000/svg">
<path d="M23.9696 30.3496C24.6791 25.6293 22.5072 19.3502 17.3236 18.2883C17.1547 18.2546 16.4814 18.1001 16.4863 18.4066C20.7142 20.0427 22.2924 24.2128 22.0559 28.5179C21.9884 29.7463 21.5564 31.3076 21.5636 32.5021C21.5661 33.0331 21.7133 33.3733 22.2876 33.383C25.2221 32.8593 28.2193 32.367 31.2044 32.2536C33.1639 32.1812 35.7895 32.0074 37.2664 33.5278C38.3306 34.6209 37.7128 35.9796 36.3904 36.3247C34.8894 36.718 31.8318 35.7117 30.0943 35.6055C26.3659 35.3763 24.3147 36.6239 20.9772 37.1524C17.8425 37.6495 18.1321 34.9877 16.4042 33.0548C11.8891 28.0015 3.78312 31.7951 0.332236 25.721C-1.02881 23.3247 2.12766 22.4946 3.7421 23.8218C2.96505 20.6436 3.00607 17.9384 4.88837 15.1729C8.57576 9.75282 15.9771 10.1341 21.4599 12.236C23.236 12.9165 26.5807 15.0933 28.27 14.9895C29.9592 14.8857 30.84 13.2327 30.0461 11.7679C29.2883 10.3658 26.5397 8.41349 25.4006 6.8618C24.5874 5.75172 23.0719 2.62421 23.3301 1.29694C23.6269 -0.228207 26.7882 1.03149 27.616 1.62031C29.298 2.81968 30.0099 4.78403 31.2213 6.2947C34.0617 9.83729 39.9306 10.4044 41.9577 14.6661C42.3583 15.5083 43.1184 17.6151 43.0798 18.4911C42.935 21.884 37.9662 20.8536 35.7099 21.3193C32.814 21.9178 32.6234 23.8701 30.9655 25.8079C29.1918 27.8808 26.448 29.3022 23.9648 30.3496H23.9696Z" fill="#FF6200"/>
<path d="M36.0695 8.6956C34.2114 8.16711 30.8908 5.28091 30.6543 3.36724C30.4757 1.92897 30.7412 0.0418363 32.5149 0.000811736C36.2457 -0.0836506 35.1694 6.44649 36.0695 8.6956Z" fill="#FF6200"/>
<path d="M15.1667 34.5074C15.6928 34.365 16.9646 36.4765 16.967 36.7999C16.9742 37.5577 14.2111 38.6412 13.5258 38.7715C11.7183 39.1166 7.18626 39.5003 8.15396 36.4235C8.85379 34.1961 11.7352 35.6874 13.0455 35.5957C13.9553 35.5306 14.7227 34.6232 15.1667 34.505V34.5074Z" fill="#FF6200"/>
<g clip-path="url(#clip0_400_3354)">
<path d="M70.8691 8.35693V11.6113H74.0864V25.532H70.8691V28.7864H57.1069V8.35693H70.8691ZM61.2224 24.6183H69.971V12.5198H61.2224V24.6183Z" fill="#111927"/>
<path d="M89.2643 22.2776H80.5157V24.6182H86.9451V28.7811H79.6123V25.5267H76.395V21.3638H79.6123V18.1094H89.2591V15.7688H79.6123V11.606H90.1572V14.8604H93.3745V28.7811H89.2591V22.2776H89.2643Z" fill="#111927"/>
<path d="M112.673 15.7742H99.8093V18.1148H109.456V21.3692H112.673V25.532H109.456V28.7864H95.6938V24.6236H108.558V22.283H98.9112V19.0286H95.6938V14.8657H98.9112V11.6113H112.673V15.7742Z" fill="#111927"/>
<path d="M122.32 19.0232H119.103V28.7811H114.987V8.35693H119.103V14.8604H121.417V11.606H128.749V14.8604H131.967V28.7811H127.851V15.7742H122.32V19.0286V19.0232Z" fill="#111927"/>
<path d="M151.255 15.7742H148.038V18.1148H151.255V25.532H148.038V28.7864H134.275V8.35693H148.038V11.6113H151.255V15.7742ZM138.396 14.8604H147.145V12.5198H138.396V14.8604ZM138.396 24.6183H147.145V19.0232H138.396V24.6183Z" fill="#111927"/>
<path d="M166.433 11.6113H170.548V28.7864H166.433V25.532H164.119V28.7864H156.786V25.532H153.569V11.6113H157.684V24.6236H163.216V21.3692H166.433V11.6113Z" fill="#111927"/>
<path d="M180.195 19.0232H176.978V28.7811H172.862V11.6113H176.978V14.8657H179.292V11.6113H186.624V14.8657H189.842V28.7864H185.726V15.7742H180.195V19.0286V19.0232Z" fill="#111927"/>
<path d="M199.488 19.0232H196.271V28.7811H192.155V11.6113H196.271V14.8657H198.585V11.6113H205.917V14.8657H209.135V28.7864H205.019V15.7742H199.488V19.0286V19.0232Z" fill="#111927"/>
<path d="M224.313 11.6113H228.429V22.2776H225.211V25.532H221.994V28.7864H218.777V32.0408H211.444V27.878H217.873V25.5374H214.656V22.283H211.438V11.6113H215.554V21.3692H218.771V24.6236H221.085V21.3692H224.303V11.6113H224.313Z" fill="#111927"/>
</g>
<defs>
<clipPath id="clip0_400_3354">
<rect width="171.321" height="23.6786" fill="white" transform="translate(57.1069 8.35693)"/>
</clipPath>
</defs>
</svg>
