<svg width="352" height="240" viewBox="0 0 352 240" fill="none" xmlns="http://www.w3.org/2000/svg">
<g clip-path="url(#clip0_445_2595)">
<rect width="351" height="240" fill="#F9FAFB"/>
<path d="M64.7096 240H113.19C106.51 221.45 99.5896 201.33 92.7396 180.82C78.5196 183.85 63.6396 186.99 49.3896 189.99L64.7197 240.01L64.7096 240Z" fill="#ECECED"/>
<path d="M278.49 81.9902L247 133.5L308.54 105.99L278.49 81.9902Z" fill="#ECECED"/>
<path d="M115.02 27.9L189.43 10.87L175.82 0H69.3701C78.7201 31.15 97.2401 91.97 116.97 152.09C120.69 151.28 124.28 150.5 127.69 149.76C140.07 147.05 152 145.29 163.32 144.08L237.5 137L272.1 76.9L192.43 13.26L135.14 26.37L136.49 63.3L145.7 61.53C148.01 61.08 150.02 59.66 151.2 57.62C152.38 55.58 152.62 53.13 151.85 50.9L142.91 25.01L145.75 24.03L154.69 49.92C155.74 52.97 155.42 56.33 153.81 59.12C152.2 61.91 149.45 63.87 146.28 64.48L136.61 66.34V66.41L136.13 66.43L123.09 68.94L122.52 65.99L133.51 63.87L132.16 27.04L115.69 30.81C114.02 31.19 112.62 32.22 111.75 33.7C110.88 35.18 110.67 36.9 111.15 38.55L113.39 46.23L110.51 47.07L108.27 39.39C107.56 36.94 107.87 34.38 109.17 32.18C110.46 29.98 112.54 28.45 115.03 27.89L115.02 27.9Z" fill="#ECECED"/>
<path d="M328.06 100.86C336.75 96.18 344.81 91.77 351.39 88.14V72.53L260.56 0H188.64L318.18 103.45L328.06 100.86Z" fill="#ECECED"/>
<path d="M300.27 207.73C307.42 207.73 313.23 201.92 313.23 194.77V134.74C294.04 144.69 275.38 153.81 264.67 157.61C249.81 162.88 231.23 163.53 209.71 164.28C187 165.07 161.26 165.97 132.62 172.23C129.93 172.82 127.14 173.43 124.26 174.05C132.05 197.32 139.87 219.9 147.26 240H204.8V226.7C204.8 216.24 213.31 207.74 223.76 207.74H300.28L300.27 207.73Z" fill="#ECECED"/>
<path d="M335.63 132.21L329.3 126.67L329.92 125.96C326.4 127.84 322.82 129.73 319.23 131.61V194.77C319.23 205.23 310.72 213.73 300.27 213.73H223.75C216.6 213.73 210.79 219.55 210.79 226.69V239.99H351.39V176.47L335.63 132.2V132.21Z" fill="#ECECED"/>
<path d="M36.61 192.67C22.99 195.53 10.38 198.16 0 200.32V240H51.12L36.61 192.67Z" fill="#ECECED"/>
<path d="M351.39 50.78V0H287.81L351.39 50.78Z" fill="#ECECED"/>
<path d="M351.39 152.62V114.39C346.76 116.92 341.77 119.62 336.58 122.41L342.47 127.56L351.39 152.62Z" fill="#ECECED"/>
<path d="M85.48 158.85C63.81 92.72 43.97 26.85 35.97 0H0V176.82C23.23 171.98 55.64 165.19 85.48 158.84V158.85Z" fill="#ECECED"/>
<path d="M119.566 116.65C119.559 118.804 120.672 121.111 122.906 122.041L121.896 123.506C120.328 122.839 119.244 121.514 118.644 119.902C118.043 121.653 116.937 123.118 115.362 123.843L114.293 122.363C116.505 121.375 117.647 118.906 117.647 116.65V115.83H114.82V114.307H122.35V115.83H119.566V116.65ZM123.668 126.348V113.018H125.558V126.348H123.668ZM138.229 118.979V120.459H134.361V123.301H139.562V124.824H127.359V123.301H132.501V120.459H128.795V113.955H138.126V115.449H130.67V118.979H138.229ZM152.511 118.994V120.386H140.309V118.994H152.511ZM141.7 122.334V121.045H151.046V124.194H143.575V124.956H151.441V126.23H141.715V123.008H149.2V122.334H141.7ZM141.803 114.526V113.252H151.031V116.387H143.692V117.104H151.266V118.364H141.832V115.2H149.156V114.526H141.803ZM160.143 113.223V114.146H165.489V113.223H167.35V117.69H158.297V113.223H160.143ZM156.744 119.888V118.379H168.902V119.888H163.746V120.723H167.423V124.092H159.996V124.854H167.774V126.26H158.165V122.803H165.577V122.085H158.15V120.723H161.871V119.888H156.744ZM160.143 116.299H165.489V115.493H160.143V116.299ZM180.943 113.018V126.377H179.083V119.346H176.93V117.822H179.083V113.018H180.943ZM170.147 115.64V114.131H176.183V119.126H172.037V121.733C173.875 121.719 175.428 121.653 177.149 121.353L177.296 122.876C175.318 123.206 173.509 123.279 171.275 123.271H170.177V117.646H174.366V115.64H170.147ZM188.751 113.706C191.615 113.706 193.768 115.156 193.775 117.354C193.768 119.368 192.069 120.715 189.674 120.979V123.257H194.874V124.795H182.672V123.257H187.813V120.979C185.433 120.708 183.741 119.36 183.741 117.354C183.741 115.156 185.887 113.706 188.751 113.706ZM185.587 117.354C185.587 118.76 186.883 119.543 188.751 119.551C190.626 119.543 191.922 118.76 191.93 117.354C191.922 116.021 190.626 115.193 188.751 115.2C186.883 115.193 185.587 116.021 185.587 117.354ZM206.461 116.65V118.115H197.145V113.486H199.005V116.65H206.461ZM195.621 121.016V119.551H207.823V121.016H195.621ZM197.027 126.055V122.1H198.902V124.561H206.549V126.055H197.027ZM224.215 119.067V120.576H219.059V121.565C221.373 121.733 222.75 122.568 222.765 123.945C222.75 125.491 221 126.355 218.121 126.348C215.199 126.355 213.448 125.491 213.448 123.945C213.448 122.561 214.833 121.726 217.198 121.558V120.576H212.057V119.067H224.215ZM212.599 117.104C215.067 116.885 216.429 115.977 216.766 115.054H213.17V113.589H223.116V115.054H219.491C219.813 115.984 221.168 116.885 223.702 117.104L223.043 118.569C220.523 118.328 218.832 117.383 218.121 116.086C217.418 117.375 215.741 118.335 213.214 118.569L212.599 117.104ZM215.353 123.945C215.345 124.59 216.275 124.941 218.121 124.941C219.93 124.941 220.882 124.59 220.89 123.945C220.882 123.271 219.93 122.949 218.121 122.935C216.275 122.949 215.345 123.271 215.353 123.945ZM226.749 125.132C226.061 125.132 225.504 124.583 225.519 123.901C225.504 123.228 226.061 122.678 226.749 122.686C227.401 122.678 227.965 123.228 227.965 123.901C227.965 124.583 227.401 125.132 226.749 125.132ZM230.982 125.132C230.294 125.132 229.737 124.583 229.752 123.901C229.737 123.228 230.294 122.678 230.982 122.686C231.634 122.678 232.198 123.228 232.198 123.901C232.198 124.583 231.634 125.132 230.982 125.132ZM235.216 125.132C234.527 125.132 233.971 124.583 233.985 123.901C233.971 123.228 234.527 122.678 235.216 122.686C235.868 122.678 236.432 123.228 236.432 123.901C236.432 124.583 235.868 125.132 235.216 125.132Z" fill="#667085"/>
</g>
<defs>
<clipPath id="clip0_445_2595">
<rect width="351.39" height="240" fill="white"/>
</clipPath>
</defs>
</svg>
